<svg width="100" height="100" viewBox="0 0 100 100" fill="none" xmlns="http://www.w3.org/2000/svg">
<path d="M0.0665309 1.99001C14.3965 10.7 28.1765 10.05 41.6565 0C47.4665 4.82 54.2165 7.6 61.9065 7.97C69.5865 8.34 76.5865 6.24 83.0465 1.84C83.0465 10.14 83.0465 18.26 83.0465 26.51C77.4965 27.28 72.7765 29.61 69.4765 34.32C67.0865 37.73 65.9965 41.56 66.0465 45.71C66.1665 55.11 71.1765 60.98 82.2365 64.46C81.3565 66.26 80.6065 68.08 79.6165 69.77C75.9265 76.04 70.7165 80.92 65.0465 85.34C57.9765 90.85 50.3065 95.42 42.2665 99.35C41.8865 99.53 41.2765 99.56 40.9065 99.38C28.3565 93.29 16.7965 85.8 7.46653 75.26C4.30653 71.69 1.67653 67.74 0.50653 63.03C0.19653 61.79 0.0265307 60.49 0.0165307 59.21C-0.0134693 40.5 0.00653047 21.8 0.00653047 3.09C0.00653047 2.72 0.0465309 2.37001 0.0665309 1.99001ZM41.5265 77.37C41.5265 77.4 41.5265 77.43 41.5265 77.46C43.5665 77.46 45.6065 77.59 47.6265 77.44C52.8165 77.05 56.8265 74.72 59.0665 69.88C63.0465 61.28 58.0965 50.36 49.0265 47.56C47.7465 47.17 46.7465 47.36 45.6865 48.19C43.1665 50.16 39.8865 50.16 37.3865 48.17C36.2665 47.28 35.2165 47.18 33.9265 47.6C27.1965 49.78 22.6365 56.33 22.7265 63.76C22.8165 71.08 27.3265 76.36 34.5565 77.32C36.8365 77.63 39.1965 77.37 41.5265 77.37ZM29.9365 33.47C29.9165 40.2 34.8965 45.32 41.4465 45.3C47.5365 45.28 52.7665 39.88 52.8065 33.56C52.8565 27.23 47.5365 21.7 41.4165 21.72C34.9265 21.74 29.9565 26.83 29.9365 33.47Z" fill="black"/>
<path d="M99.3453 45.5672C99.3753 53.3772 92.8453 59.8872 84.9353 59.9172C77.0953 59.9572 70.4453 53.3972 70.4453 45.6172C70.4453 37.4172 76.6953 31.1472 84.8753 31.1172C93.0853 31.1072 99.3153 37.3272 99.3453 45.5672ZM83.2753 46.4672C82.4153 45.5272 81.7153 44.6472 80.9053 43.8872C79.8953 42.9372 78.5553 42.9872 77.6653 43.8972C76.7853 44.7972 76.7853 46.1372 77.7353 47.1372C79.0253 48.4872 80.3553 49.8072 81.6953 51.0972C82.7553 52.1172 83.9853 52.1772 85.0253 51.1672C87.7653 48.5072 90.4753 45.8072 93.1453 43.0772C94.1353 42.0672 94.0053 40.6572 92.9953 39.7572C92.0053 38.8772 90.7453 38.9372 89.6553 40.0172C87.6153 42.0672 85.5753 44.1472 83.2753 46.4672Z" fill="black"/>
<path d="M41.5381 72.9292C39.3381 72.9292 37.1181 73.1292 34.9481 72.8892C30.8181 72.4292 28.1481 69.6892 27.4281 65.5792C26.5181 60.4092 29.3381 54.7592 33.9181 52.7292C34.4181 52.5092 35.2281 52.5392 35.7181 52.7992C39.6281 54.8592 43.4781 54.8792 47.3781 52.7692C47.7981 52.5392 48.5081 52.4992 48.9381 52.6992C53.9681 55.0192 56.7681 60.9592 55.4181 66.3092C54.4181 70.2592 51.0281 72.9592 46.8981 73.0692C45.1181 73.1192 43.3281 73.0792 41.5381 73.0792C41.5381 73.0192 41.5381 72.9792 41.5381 72.9292Z" fill="black"/>
<path d="M34.6095 33.6213C34.6295 29.8013 37.8695 26.4213 41.4695 26.4613C45.0295 26.5113 48.1995 29.8713 48.2195 33.6213C48.2395 37.3913 44.9695 40.8713 41.4095 40.8713C37.8395 40.8813 34.5895 37.4113 34.6095 33.6213Z" fill="black"/>
</svg>
