<svg width="118" height="118" viewBox="0 0 118 118" fill="none" xmlns="http://www.w3.org/2000/svg">
<path d="M55.9831 24.2H61.6831V14.2H66.6531L58.8231 0.5L50.9531 14.2H56.0231L55.9831 24.2Z" fill="black" stroke="black" stroke-miterlimit="10" stroke-linejoin="round"/>
<path d="M61.6231 93.4219H55.9231V103.422H50.9531L58.7731 117.112L66.6531 103.412H61.5831L61.6231 93.4219Z" fill="black" stroke="black" stroke-miterlimit="10" stroke-linejoin="round"/>
<path d="M85.3034 81.1797L81.2734 85.2097L88.3434 92.2797L84.8234 95.7897L100.043 99.9397L95.9234 84.6897L92.3334 88.2797L85.3034 81.1797Z" fill="black" stroke="black" stroke-miterlimit="10" stroke-linejoin="round"/>
<path d="M80.9766 32.3728L84.9966 36.4028L92.0766 29.3328L95.5865 32.8428L99.7366 17.6328L84.4766 21.7428L88.0666 25.3328L80.9766 32.3728Z" fill="black" stroke="black" stroke-miterlimit="10" stroke-linejoin="round"/>
<path d="M32.2713 36.4028L36.3013 32.3728L29.2313 25.3028L32.7513 21.7828L17.5312 17.6328L21.6513 32.8928L25.2413 29.3028L32.2713 36.4028Z" fill="black" stroke="black" stroke-miterlimit="10" stroke-linejoin="round"/>
<path d="M36.3069 85.2566L32.2869 81.2266L25.2169 88.2966L21.6969 84.7766L17.5469 99.9966L32.8069 95.8766L29.2169 92.2966L36.3069 85.2566Z" fill="black" stroke="black" stroke-miterlimit="10" stroke-linejoin="round"/>
<path d="M93.4062 55.9831V61.6831H103.406V66.6531L117.096 58.8231L103.396 50.9531V56.0231L93.4062 55.9831Z" fill="black" stroke="black" stroke-miterlimit="10" stroke-linejoin="round"/>
<path d="M24.19 61.6231V55.9231H14.19V50.9531L0.5 58.7731L14.2 66.6531V61.5831L24.19 61.6231Z" fill="black" stroke="black" stroke-miterlimit="10" stroke-linejoin="round"/>
<path d="M56.7322 72.5838C54.4522 72.8538 52.1822 73.1238 49.9122 73.3938C49.6322 73.4238 49.3522 73.4637 49.0822 73.5137C46.1222 74.0437 46.1122 74.0538 45.0022 71.1938C43.7222 67.9038 42.9522 64.4938 42.7422 60.8438C47.4222 60.8438 52.0222 60.8438 56.7322 60.8438C56.7322 64.7338 56.7322 68.6338 56.7322 72.5838Z" fill="black"/>
<path d="M60.8203 60.8047C65.4803 60.8047 70.0503 60.8047 74.9003 60.8047C74.6903 62.3147 74.6403 63.8147 74.2603 65.2147C73.5203 67.9147 72.6003 70.5647 71.7003 73.2147C71.5903 73.5447 71.0403 74.0047 70.7603 73.9647C67.4803 73.5247 64.2103 73.0047 60.8303 72.4847C60.8203 68.7047 60.8203 64.8347 60.8203 60.8047Z" fill="black"/>
<path d="M74.8494 56.7659C70.1194 56.7659 65.5394 56.7659 60.8594 56.7659C60.8594 52.8559 60.8594 48.9559 60.8594 44.9859C63.1194 44.7159 65.3894 44.4559 67.6594 44.1859C67.9894 44.1459 68.3094 44.0959 68.6294 44.0359C71.4294 43.4859 71.4494 43.4759 72.4894 46.0959C73.8194 49.4759 74.6494 52.9659 74.8494 56.7659Z" fill="black"/>
<path d="M42.7422 56.7265C43.0022 52.2565 44.0722 48.0865 46.0022 44.1465C46.1322 43.8765 46.6622 43.5965 46.9522 43.6465C50.1822 44.0965 53.4122 44.6165 56.7422 45.1265C56.7422 48.8765 56.7422 52.7465 56.7422 56.7365C52.1722 56.7265 47.5722 56.7265 42.7422 56.7265Z" fill="black"/>
<path d="M36.9717 77.5925C33.1317 73.7225 29.8117 65.6225 30.1217 60.8125C32.9517 60.8125 35.7917 60.8125 38.6617 60.8125C39.0917 63.2425 39.3817 65.7025 39.9817 68.0825C40.5817 70.4725 41.5017 72.7825 42.3017 75.2125C40.6117 75.9725 38.8317 76.7625 36.9717 77.5925Z" fill="black"/>
<path d="M87.4494 60.8281C87.7794 65.5681 84.4794 73.6381 80.6094 77.5981C78.8194 76.7981 77.0094 75.9881 75.1094 75.1381C77.2494 70.5881 78.4194 65.8481 78.7494 60.8281C81.7094 60.8281 84.5794 60.8281 87.4494 60.8281Z" fill="black"/>
<path d="M36.8822 39.9453C38.7922 40.7953 40.5722 41.5953 42.4622 42.4353C40.3322 46.9553 39.1322 51.6853 38.8322 56.7353C35.9022 56.7353 33.0222 56.7353 29.9922 56.7353C30.4522 50.3053 32.8022 44.7653 36.8822 39.9453Z" fill="black"/>
<path d="M87.6094 56.7531C84.5394 56.7531 81.7094 56.7531 78.7794 56.7531C78.4294 51.7531 77.3094 47.0031 75.1094 42.4531C76.9594 41.6231 78.7394 40.8331 80.6994 39.9531C84.7794 44.7331 87.0894 50.2931 87.6094 56.7531Z" fill="black"/>
<path d="M56.7491 31.1562C56.7491 34.5763 56.7491 37.7263 56.7491 41.1763C53.9891 40.8363 51.2891 40.5163 48.2891 40.1463C50.5891 36.4663 53.3791 33.7162 56.7491 31.1562Z" fill="black"/>
<path d="M69.3537 40.1297C66.3737 40.5097 63.6737 40.8497 60.8438 41.1997C60.8438 37.7997 60.8438 34.6297 60.8438 31.1797C64.2037 33.6497 66.9237 36.4797 69.3537 40.1297Z" fill="black"/>
<path d="M48.2344 77.4784C51.2244 77.0984 53.8944 76.7584 56.7144 76.3984C56.7144 79.7784 56.7144 82.9684 56.7144 86.3884C53.3844 83.9484 50.6844 81.1284 48.2344 77.4784Z" fill="black"/>
<path d="M60.8203 86.4384C60.8203 82.9884 60.8203 79.8284 60.8203 76.3984C63.6303 76.7484 66.3403 77.0784 69.3403 77.4584C66.9703 81.1084 64.2203 83.8984 60.8203 86.4384Z" fill="black"/>
<path d="M67.2891 31.1797C71.1591 32.3797 74.5891 34.2597 77.7991 37.0697C76.3791 37.6597 75.1491 38.2097 73.8791 38.6597C73.5991 38.7597 73.0491 38.5797 72.8591 38.3397C70.9991 36.0097 69.1891 33.6397 67.2891 31.1797Z" fill="black"/>
<path d="M39.7734 37.0641C43.0334 34.2241 46.4734 32.3741 50.2934 31.1641C48.3934 33.6241 46.5634 36.0241 44.6834 38.3841C44.5134 38.6041 44.0134 38.7741 43.7634 38.6841C42.5034 38.2241 41.2734 37.6841 39.7734 37.0641Z" fill="black"/>
<path d="M67.3203 86.3867C69.2003 83.9467 71.0103 81.5767 72.8603 79.2367C73.0403 79.0067 73.5303 78.7967 73.7603 78.8767C75.0603 79.3467 76.3303 79.9067 77.7903 80.5167C74.5803 83.3167 71.1603 85.1967 67.3203 86.3867Z" fill="black"/>
<path d="M50.2213 86.3567C46.4113 85.2167 43.0213 83.3067 39.7812 80.5267C41.2613 79.9167 42.5213 79.3567 43.8213 78.8667C44.0413 78.7867 44.4913 78.9267 44.6413 79.1167C46.5113 81.5067 48.3413 83.9167 50.2213 86.3567Z" fill="black"/>
</svg>
